<svg width="48" height="48" viewBox="0 0 48 48" fill="none" xmlns="http://www.w3.org/2000/svg">
<path d="M22.5273 43.2459L5.52995 33.9209C4.80266 33.5219 4.84944 32.4619 5.60905 32.1285L22.6034 24.6699C22.8509 24.5613 23.1318 24.5575 23.3821 24.6593L41.7215 32.1193C42.5153 32.4422 42.5618 33.5486 41.798 33.937L23.4615 43.2605C23.1668 43.4104 22.8171 43.4049 22.5273 43.2459Z" fill="#686A6D" stroke="#9B9B9B"/>
<path d="M22.5273 33.2459L5.52995 23.9209C4.80266 23.5219 4.84944 22.4619 5.60905 22.1285L22.6034 14.6699C22.8509 14.5613 23.1318 14.5575 23.3821 14.6593L41.7215 22.1193C42.5153 22.4422 42.5618 23.5486 41.798 23.937L23.4615 33.2605C23.1668 33.4104 22.8171 33.4049 22.5273 33.2459Z" fill="#686A6D" stroke="#9B9B9B"/>
<path d="M22.5273 24.2459L5.52995 14.9209C4.80266 14.5219 4.84944 13.4619 5.60905 13.1285L22.6034 5.66989C22.8509 5.56128 23.1318 5.55746 23.3821 5.65929L41.7215 13.1193C42.5153 13.4422 42.5618 14.5486 41.798 14.937L23.4615 24.2605C23.1668 24.4104 22.8171 24.4049 22.5273 24.2459Z" fill="#686A6D" stroke="#9B9B9B"/>
</svg>
