<svg width="48" height="48" viewBox="0 0 48 48" fill="none" xmlns="http://www.w3.org/2000/svg">
<path d="M16.208 8.10352L29.7664 25.0905" stroke="#000102" stroke-width="1.55844"/>
<path d="M12.9351 38.4942V29.107C12.9351 28.2271 13.8219 27.6241 14.6402 27.9476L18.2567 29.3773C19.0893 29.7065 19.6364 30.511 19.6364 31.4063V41.6111" stroke="#000102" stroke-width="1.55844"/>
<path d="M24.9351 43.9484V27.1172" stroke="#000102" stroke-width="1.55844"/>
<path d="M4.49628 22.4765L3.36404 20.0378C3.1263 19.5258 3.26231 18.9179 3.6956 18.556L16.2077 8.10468L31.6395 4.42371C32.5872 4.19764 33.5799 4.54433 34.1808 5.31131L43.9897 17.8306C44.5094 18.4939 44.2351 19.471 43.4461 19.7669L30.4047 24.6574C30.1909 24.7376 30.0032 24.875 29.8621 25.0545L27.6167 27.9124C27.1216 28.5425 26.1692 28.5486 25.666 27.925L16.3471 16.3747C15.9226 15.8487 15.1563 15.7566 14.6194 16.1672L5.9124 22.8255C5.43736 23.1888 4.74812 23.0189 4.49628 22.4765Z" stroke="#000102" stroke-width="1.55844"/>
<path d="M8.104 21.8186V34.1027C8.104 35.4481 8.89084 36.6691 10.116 37.225L23.816 43.4407C24.5216 43.7608 25.3359 43.7348 26.0196 43.3701L39.4837 36.1893C40.6009 35.5934 41.2988 34.4303 41.2988 33.1641V20.416" stroke="#000102" stroke-width="1.55844"/>
</svg>
